# xmcd
#
# Track frame offsets:
#	150
#	14571
#	30253
#	46012
#	61830
#	77595
#	94078
#	109338
#	125634
#	141338
#
# Disc length: 2084 seconds
#
# Revision: 0
# Processed by: cddbd v1.5.2PL0 Copyright (c) Steve Scherf et al.
# Submitted via: EasyCDDAExtractor 16.0.6.1
#
DISCID=7c08220a
DTITLE=Συλλογικός δίσκος - Λαϊκό τραγούδι 1954-1967, 1954-5
DYEAR=2008
DGENRE=Λαϊκή
TTITLE0=Καζαντζίδης Στέλιος-Γκρέϋ Καίτη - Απόψε φίλα με (Η τελευταία νύχτα) [Μ
TTITLE0=αν. Χιώτης-Χρ. Κολοκοτρώνης]
TTITLE1=Γαβαλάς Πάνος-Λίντα Μαίρη-Δούσης Φώτης - Ζωή σερέτισσα [Κώστας Καπλάνη
TTITLE1=ς]
TTITLE2=Καζαντζίδης Στέλιος-Στάμου Ρένα - Από τα πολλά φαρμάκια [Στέλιος Χρυσί
TTITLE2=νης-Χ. Βασιλειάδης]
TTITLE3=Λύδια Γιώτα-Τζουανάκος Σταύρος - Ας είν' καλά το αγόρι μου [Μανώλης Χι
TTITLE3=ώτης-Χρήστος Κολοκοτρώνης]
TTITLE4=Καζαντζίδης Στέλιος - Είδα κι έπαθα κυρά μου [Στέλιος Χρυσίνης-Χρήστος
TTITLE4=Κολοκοτρώνης]
TTITLE5=Μπιθικώτσης Γρηγόρης - Έχει η ζωή γυρίσματα [Γρηγόρης Μπιθικώτσης-Χρήσ
TTITLE5=τος Κολοκοτρώνης]
TTITLE6=Λύδια Γιώτα-Τατασσόπουλος Γιάννης - Εύχομαι να ευτυχήσεις [Απόστολος Κ
TTITLE6=αλδάρας-Κώστας Βίρβος]
TTITLE7=Καζαντζίδης Στέλιος-Στάμου Ρένα - Ζωή είν' αυτή Ζωίτσα μου [Γιώργος Μη
TTITLE7=τσάκης]
TTITLE8=Καζαντζίδης Στέλιος - Ένα τραγούδι θλιβερό [Χρήστος Κολοκοτρώνης]
TTITLE9=Νίνου Μαρίκα - Της ταβέρνας τα μεράκια [Βασίλης Τσιτσάνης]
EXTD=
EXTT0=
EXTT1=
EXTT2=
EXTT3=
EXTT4=
EXTT5=
EXTT6=
EXTT7=
EXTT8=
EXTT9=
PLAYORDER=
